<svg width="243" height="243" viewBox="0 0 243 243" fill="none" xmlns="http://www.w3.org/2000/svg">
<path fill-rule="evenodd" clip-rule="evenodd" d="M87.3429 26.0016C85.3959 19.8836 88.7951 13.2917 95.1043 11.9742C119.328 6.91616 144.655 9.63743 167.371 19.916C193.643 31.8045 214.561 52.9602 226.084 79.2997C237.609 105.639 238.924 135.294 229.773 162.54C221.862 186.097 206.614 206.41 186.395 220.621C181.128 224.323 173.965 222.311 170.791 216.724C167.617 211.138 169.647 204.104 174.819 200.272C190.055 188.986 201.551 173.277 207.632 155.172C214.952 133.374 213.9 109.651 204.681 88.5793C195.462 67.5078 178.727 50.5834 157.709 41.0726C140.252 33.1732 120.867 30.8534 102.187 34.2706C95.8467 35.4306 89.29 32.1195 87.3429 26.0016Z" fill="white"/>
<path fill-rule="evenodd" clip-rule="evenodd" d="M130.098 5.45059C130.282 2.8869 128.352 0.650493 125.783 0.565793C101.633 -0.230946 77.7561 6.2229 57.2559 19.1494C35.4422 32.9046 18.5936 53.2695 9.16774 77.2734C-0.258274 101.278 -1.76845 127.665 4.85735 152.589C11.4833 177.512 25.8984 199.665 46.0006 215.82C66.1029 231.973 90.8404 241.282 116.605 242.389C142.37 243.495 167.814 236.341 189.227 221.969C210.64 207.598 226.9 186.761 235.638 162.497C243.85 139.696 245.013 114.989 239.037 91.5771C238.401 89.0861 235.802 87.6829 233.338 88.4136L205.14 96.7777C202.676 97.5084 201.284 100.097 201.875 102.599C205.531 118.088 204.623 134.342 199.209 149.378C193.267 165.877 182.209 180.047 167.649 189.819C153.088 199.592 135.786 204.456 118.266 203.705C100.746 202.952 83.9248 196.623 70.2553 185.637C56.5858 174.653 46.7831 159.587 42.2775 142.64C37.772 125.693 38.7989 107.749 45.2085 91.4258C51.6178 75.1036 63.0756 61.2549 77.9085 51.9016C91.4268 43.3774 107.106 38.9924 123.018 39.2292C125.588 39.2673 127.816 37.3516 127.999 34.7879L130.098 5.45059Z" fill="#9566F2"/>
</svg>
