<svg width="243" height="242" viewBox="0 0 243 242" fill="none" xmlns="http://www.w3.org/2000/svg">
<path fill-rule="evenodd" clip-rule="evenodd" d="M86.8202 25.5016C84.8732 19.3836 88.2724 12.7917 94.5816 11.4742C118.805 6.41616 144.132 9.13743 166.848 19.416C193.12 31.3045 214.038 52.4602 225.562 78.7997C237.086 105.139 238.401 134.794 229.25 162.04C221.34 185.597 206.091 205.91 185.872 220.121C180.606 223.823 173.442 221.811 170.268 216.224C167.094 210.638 169.124 203.604 174.296 199.772C189.532 188.486 201.029 172.777 207.109 154.672C214.429 132.874 213.377 109.151 204.158 88.0793C194.939 67.0078 178.204 50.0834 157.186 40.5726C139.729 32.6732 120.344 30.3534 101.665 33.7706C95.324 34.9306 88.7673 31.6195 86.8202 25.5016Z" fill="white"/>
<path fill-rule="evenodd" clip-rule="evenodd" d="M129.575 4.95059C129.759 2.3869 127.829 0.150493 125.26 0.0657926C101.11 -0.730946 77.2334 5.7229 56.7332 18.6494C34.9195 32.4046 18.0709 52.7695 8.64504 76.7734C-0.780979 100.778 -2.29115 127.165 4.33464 152.089C10.9606 177.012 25.3757 199.165 45.4779 215.32C65.5802 231.473 90.3177 240.782 116.083 241.889C141.847 242.995 167.291 235.841 188.705 221.469C210.117 207.098 226.378 186.261 235.115 161.997C243.327 139.196 244.49 114.489 238.515 91.0771C237.878 88.5861 235.279 87.1829 232.815 87.9136L204.617 96.2777C202.153 97.0084 200.762 99.5971 201.353 102.099C205.008 117.588 204.101 133.842 198.686 148.878C192.744 165.377 181.687 179.547 167.126 189.319C152.565 199.092 135.263 203.956 117.743 203.205C100.223 202.452 83.4021 196.123 69.7326 185.137C56.0631 174.153 46.2604 159.087 41.7548 142.14C37.2493 125.193 38.2762 107.249 44.6858 90.9258C51.0951 74.6036 62.5529 60.7549 77.3858 51.4016C90.9041 42.8774 106.583 38.4924 122.496 38.7292C125.066 38.7673 127.294 36.8516 127.476 34.2879L129.575 4.95059Z" fill="#9566F2"/>
</svg>
