<svg width="14" height="18" viewBox="0 0 14 18" fill="none" xmlns="http://www.w3.org/2000/svg">
<g clip-path="url(#clip0_2003_2860)">
<path d="M2.60034 17.3934H10.9181C12.5315 17.3934 13.3461 16.571 13.3461 14.9418V3.05967C13.3461 1.42265 12.5394 0.60022 10.9181 0.60022H8.92876C8.66242 0.60022 8.4823 0.788203 8.4823 1.07018C8.4823 1.10934 8.4823 1.1485 8.4823 1.17984C8.4823 2.19808 7.79304 2.80903 6.75922 2.80903C5.72537 2.80903 5.03614 2.19808 5.03614 1.17984C5.03614 1.1485 5.03614 1.10934 5.03614 1.07018C5.03614 0.788203 4.856 0.60022 4.58971 0.60022H2.60034C0.979076 0.60022 0.172363 1.42265 0.172363 3.05967V14.9418C0.172363 16.571 0.986909 17.3934 2.60034 17.3934ZM3.79083 6.43554C3.50887 6.43554 3.30523 6.22406 3.30523 5.94209C3.30523 5.67578 3.50887 5.46429 3.79083 5.46429H9.73545C10.0096 5.46429 10.2132 5.67578 10.2132 5.94209C10.2132 6.22406 10.0096 6.43554 9.73545 6.43554H3.79083ZM3.79083 9.21611C3.50887 9.21611 3.30523 9.00464 3.30523 8.73835C3.30523 8.46418 3.50887 8.2527 3.79083 8.2527H6.60258C6.88456 8.2527 7.0882 8.46418 7.0882 8.73835C7.0882 9.00464 6.88456 9.21611 6.60258 9.21611H3.79083Z" fill="#F3EEFE" fill-opacity="0.85"/>
</g>
<defs>
<clipPath id="clip0_2003_2860">
<rect width="13.4087" height="16.801" fill="white" transform="translate(0.172363 0.60022)"/>
</clipPath>
</defs>
</svg>
